<svg xmlns="http://www.w3.org/2000/svg" width="1200" height="630" viewBox="0 0 1200 630" role="img" aria-label="триагос — AI-агенты для бизнес-процессов">
  <rect width="1200" height="630" fill="#141E23"/>
  <rect x="0" y="0" width="1200" height="630" fill="#1E2A30" opacity=".62"/>
  <path d="M90 430 C180 430 180 220 270 220 C360 220 360 430 450 430 C540 430 540 220 630 220 C720 220 720 430 810 430 C900 430 900 220 990 220 C1080 220 1080 430 1110 430" fill="none" stroke="#4FA0A0" stroke-width="12" stroke-linecap="round"/>
  <path d="M90 430 H1110" fill="none" stroke="#BC6247" stroke-width="7" stroke-linecap="round" opacity=".55"/>
  <circle cx="270" cy="220" r="18" fill="#4FA0A0"/>
  <circle cx="630" cy="220" r="18" fill="#4FA0A0"/>
  <circle cx="990" cy="220" r="18" fill="#4FA0A0"/>
  <circle cx="450" cy="430" r="21" fill="#BC6247"/>
  <circle cx="810" cy="430" r="21" fill="#BC6247"/>
  <g fill="#E4EDEC" font-family="Inter, Arial, sans-serif">
    <text x="90" y="112" font-size="30" font-weight="600" letter-spacing="4">ТРИАГОС</text>
    <text x="90" y="190" font-size="62" font-weight="700">AI-агенты для</text>
    <text x="90" y="266" font-size="62" font-weight="700">бизнес-процессов</text>
    <text x="90" y="542" font-size="30" fill="#93A8A8">Скорость искусственного интеллекта. Ответственность человека.</text>
  </g>
  <rect x="90" y="320" width="280" height="48" rx="24" fill="#BC6247"/>
  <text x="118" y="352" fill="#fff" font-family="Inter, Arial, sans-serif" font-size="22" font-weight="600">AI-аудит процессов</text>
</svg>
